<?xml version="1.0" standalone="no"?>
<!DOCTYPE svg PUBLIC "-//W3C//DTD SVG 20010904//EN"
 "http://www.w3.org/TR/2001/REC-SVG-20010904/DTD/svg10.dtd">
<svg version="1.0" xmlns="http://www.w3.org/2000/svg"
 width="512.000000pt" height="512.000000pt" viewBox="0 0 512.000000 512.000000"
 preserveAspectRatio="xMidYMid meet">
<metadata>
Created by potrace 1.14, written by Peter Selinger 2001-2017
</metadata>
<g transform="translate(0.000000,512.000000) scale(0.100000,-0.100000)"
fill="#000000" stroke="none">
<path d="M1687 4240 c-20 -61 -36 -143 -31 -152 5 -7 2 -8 -6 -3 -10 6 -12 3
-8 -13 4 -12 3 -22 -1 -22 -4 0 -12 -21 -18 -47 -6 -27 -19 -75 -28 -108 -9
-33 -18 -67 -19 -75 -1 -9 -5 -20 -8 -25 -3 -6 -9 -26 -14 -45 -4 -19 -8 -37
-9 -40 -1 -3 -5 -18 -9 -35 -4 -16 -12 -43 -18 -58 -9 -23 -8 -31 3 -38 12 -7
11 -9 -1 -9 -21 0 -42 -74 -26 -91 8 -9 8 -10 -1 -5 -14 8 -38 -68 -27 -86 5
-7 3 -8 -6 -3 -10 6 -12 1 -8 -18 3 -15 2 -24 -2 -22 -4 3 -11 -12 -16 -33 -4
-20 -8 -42 -10 -49 -1 -6 -7 -28 -14 -48 -6 -20 -9 -43 -5 -53 3 -9 3 -13 -2
-9 -4 5 -13 -13 -21 -40 -7 -26 -15 -57 -19 -68 -3 -11 -6 -32 -7 -47 0 -14
-4 -24 -7 -22 -4 2 -9 -9 -12 -24 -3 -15 -13 -54 -22 -87 -10 -33 -18 -64 -19
-70 -1 -5 -10 -36 -20 -69 -9 -32 -15 -65 -12 -73 3 -8 2 -12 -3 -9 -6 4 -33
-87 -32 -109 0 -2 -6 -23 -14 -45 -13 -38 -15 -44 -15 -54 0 -3 -28 6 -61 20
-34 13 -67 21 -73 17 -6 -3 -8 -3 -4 2 9 10 -190 87 -203 79 -5 -3 -9 -2 -9 3
0 11 -49 33 -72 33 -23 0 -34 -26 -19 -44 6 -7 39 -23 74 -35 34 -13 76 -28
92 -36 17 -7 41 -16 55 -20 14 -3 45 -16 69 -27 24 -10 52 -20 62 -21 11 -1
19 -4 19 -8 0 -4 10 -9 23 -11 23 -3 26 -24 12 -78 -4 -14 -8 -34 -9 -45 -1
-11 -8 -30 -14 -42 -7 -12 -12 -29 -12 -37 0 -12 -10 -14 -52 -11 -29 2 -80 7
-113 9 -33 3 -95 8 -139 12 -43 3 -85 7 -95 9 -9 1 -19 -3 -23 -9 -5 -8 -8 -7
-8 2 0 6 -11 12 -24 12 -26 0 -46 -34 -29 -50 12 -12 156 -23 149 -11 -4 5 -1
13 5 17 7 4 9 3 5 -4 -13 -21 13 -26 189 -37 39 -2 70 -5 70 -5 0 -1 8 -3 18
-5 27 -5 28 -7 12 -59 -8 -26 -14 -51 -13 -54 1 -4 -3 -17 -10 -29 -7 -13 -10
-23 -7 -23 3 0 1 -9 -5 -21 -7 -11 -17 -18 -25 -15 -7 2 -15 2 -18 0 -4 -5
-120 -11 -294 -15 -63 -2 -74 -5 -79 -22 -4 -11 -1 -23 7 -28 18 -12 130 -8
147 4 7 6 12 6 12 -1 0 -6 9 -9 21 -7 54 11 201 7 212 -5 7 -7 7 -10 1 -7 -9
5 -53 -138 -57 -188 -1 -11 -6 -23 -10 -26 -5 -3 -9 -22 -10 -42 -1 -20 -5
-37 -8 -37 -7 0 -30 -85 -27 -97 1 -5 -3 -17 -9 -28 -6 -11 -14 -37 -18 -58
-6 -28 -12 -37 -29 -38 -11 -1 -209 -2 -438 -3 -319 -1 -420 -4 -429 -13 -9
-9 -10 -16 -3 -23 6 -6 245 -11 640 -12 l630 -3 -2 -35 c-3 -86 37 -186 107
-264 95 -106 247 -144 390 -96 66 22 148 77 149 98 0 7 4 11 9 8 12 -8 66 78
86 138 9 27 17 72 17 100 l2 51 510 0 511 0 1 -50 c0 -27 4 -66 8 -85 10 -45
43 -110 57 -110 6 0 8 -4 5 -9 -8 -12 29 -43 39 -34 4 5 5 3 2 -4 -9 -14 53
-63 118 -93 60 -28 223 -42 210 -19 -6 11 -5 11 5 2 9 -8 19 -9 32 -2 10 5 18
7 18 4 0 -2 25 9 55 25 65 35 118 86 109 103 -4 7 -4 9 1 5 22 -20 83 108 91
191 7 70 11 84 24 76 5 -3 10 0 10 7 0 9 2 10 8 2 5 -9 157 -11 572 -9 311 1
569 3 573 4 5 0 7 11 5 24 -4 27 23 26 -441 27 l-367 1 -12 44 c-7 25 -16 45
-21 45 -4 0 -6 4 -2 9 8 14 -16 102 -26 95 -5 -3 -6 2 -3 10 3 9 3 24 -2 33
-10 24 -11 30 -13 54 0 11 -4 18 -8 16 -5 -3 -8 9 -9 27 0 18 -4 41 -9 52 -4
10 -10 30 -12 44 -2 14 -8 26 -13 28 -4 2 -6 12 -3 22 3 11 1 20 -5 20 -6 0
-8 9 -5 19 3 13 10 18 21 14 11 -5 13 -3 7 8 -7 12 -6 12 7 1 9 -7 38 -13 65
-12 26 0 98 -2 158 -4 122 -6 144 -2 141 20 -3 22 -27 34 -62 31 -16 -2 -46 0
-66 4 -22 3 -41 2 -47 -4 -6 -6 -11 -7 -11 -1 0 5 -50 10 -111 12 -76 2 -116
7 -125 16 -7 8 -11 16 -9 18 3 3 -6 41 -19 85 -14 49 -20 87 -15 95 6 9 9 9 9
1 0 -7 10 -10 28 -7 15 3 41 6 57 8 17 1 36 5 44 10 10 7 12 6 6 -4 -5 -7 -4
-11 1 -8 5 3 50 9 101 12 212 15 232 20 212 57 -9 18 -17 19 -87 13 -42 -4
-87 -7 -99 -7 -13 1 -21 -2 -19 -6 2 -3 -21 -7 -52 -7 -32 -1 -95 -3 -141 -5
l-84 -4 -15 55 c-9 30 -19 57 -24 58 -4 2 -6 8 -3 13 4 5 2 25 -4 44 -9 34 -9
36 20 42 16 3 29 10 29 15 0 5 4 7 8 4 5 -3 19 1 33 7 13 7 71 30 129 52 58
21 110 43 117 47 6 5 24 11 39 14 15 3 31 7 36 10 13 8 9 44 -6 50 -16 6 -296
-95 -296 -108 0 -5 -5 -6 -10 -3 -6 4 -16 2 -23 -3 -7 -5 -27 -13 -45 -17 -18
-3 -30 -10 -28 -14 3 -4 -4 -7 -15 -7 -11 0 -18 5 -15 11 2 5 -3 26 -11 45 -8
19 -17 49 -20 65 -3 17 -9 32 -14 33 -5 2 -7 7 -4 12 3 5 0 21 -6 37 -6 15
-13 42 -14 59 -2 17 -9 42 -16 55 -7 13 -11 26 -10 29 2 5 -17 83 -27 110 -7
20 -6 17 -22 83 -7 31 -16 57 -20 57 -4 0 -6 10 -5 23 3 30 -5 48 -18 40 -6
-3 -7 -1 -3 6 11 18 -3 72 -17 65 -9 -5 -9 -3 0 6 9 9 9 19 2 32 -6 11 -12 27
-14 36 -5 23 -25 104 -30 122 -3 8 -10 38 -16 65 -6 28 -14 52 -18 55 -3 3 -6
10 -6 15 0 27 -29 125 -37 125 -5 0 -7 4 -4 9 3 5 0 28 -7 52 -17 55 -17 56
-17 75 0 8 -4 13 -9 10 -4 -3 -8 2 -7 12 2 26 -37 171 -44 167 -4 -3 -5 7 -2
20 2 15 0 25 -7 25 -7 0 -10 4 -7 8 3 4 -9 57 -25 118 -17 60 -31 115 -32 122
-1 22 -13 -1 -32 -58 -21 -67 -27 -90 -28 -112 -1 -9 -3 -15 -6 -12 -2 2 -29
-71 -58 -163 -30 -93 -57 -175 -62 -183 -4 -8 -7 -25 -6 -37 1 -12 -4 -24 -10
-27 -7 -2 -12 -15 -11 -28 1 -13 -2 -26 -7 -29 -5 -3 -9 -12 -10 -20 -2 -8 -5
-18 -9 -24 -14 -22 -37 -118 -31 -128 3 -5 2 -7 -4 -4 -5 3 -15 -17 -23 -46
-7 -29 -17 -57 -22 -64 -6 -7 -11 -30 -11 -52 -1 -21 -5 -37 -9 -35 -9 6 -21
-34 -13 -46 8 -13 8 -13 -54 10 -30 11 -58 17 -64 13 -6 -3 -7 -1 -4 4 4 6 -3
13 -16 16 -12 3 -49 12 -82 20 -117 30 -224 40 -243 25 -13 -11 -14 -11 -8 0
6 10 -8 12 -68 10 -42 -1 -76 -5 -76 -8 0 -3 -26 -6 -57 -6 -32 -1 -59 -6 -60
-11 -2 -4 -19 -8 -38 -7 -19 1 -35 -1 -35 -5 0 -4 -6 -8 -12 -9 -33 -3 -52
-10 -56 -20 -2 -6 -9 -9 -17 -6 -7 3 -34 -3 -59 -14 l-45 -21 -27 85 c-16 52
-30 82 -36 77 -7 -4 -8 -1 -3 7 9 14 -14 92 -26 85 -4 -3 -5 3 -2 13 2 10 -1
31 -8 47 -7 17 -13 37 -15 46 -2 9 -9 29 -15 45 -14 33 -13 29 -23 72 -4 17
-12 32 -17 32 -6 0 -8 4 -5 8 8 13 -29 123 -39 115 -4 -5 -5 -3 -2 3 6 10 -17
90 -40 144 -3 8 -7 20 -8 25 0 6 -4 17 -7 25 -4 8 -9 28 -12 43 -4 15 -10 26
-15 23 -4 -3 -6 6 -3 19 2 14 0 25 -5 25 -5 0 -10 12 -11 26 -1 14 -5 31 -9
37 -4 7 -9 19 -10 28 -1 8 -7 26 -12 40 -6 17 -10 20 -14 9z m-277 -2120 c0
-5 -2 -10 -4 -10 -3 0 -8 5 -11 10 -3 6 -1 10 4 10 6 0 11 -4 11 -10z"/>
</g>
</svg>
